# Blender v2.77 (sub 0) OBJ File: ''
# www.blender.org
mtllib Autumn Tree.mtl
o MODELS_bin_013:poly001
v -0.523438 36.054691 0.324225
v 13.153750 64.332626 -4.516822
v 0.046875 35.910160 1.644537
v 13.517030 64.301376 -3.774636
v -0.089844 4.824220 -2.378905
v -2.828125 4.824219 -0.800780
v -0.089844 -0.773437 -3.367188
v -3.679688 -0.773438 -1.292969
v -1.976563 34.648441 -0.480463
v 0.128906 34.812500 -1.691400
v -0.906250 34.648441 -0.441400
v 0.113281 33.445309 -0.249995
v 13.517030 64.012306 -5.173072
v 14.243600 63.660751 -5.087135
v -0.089844 -0.773439 4.921875
v -3.679688 -0.773438 2.847656
v -0.089844 4.824219 3.937501
v -2.828125 4.824219 2.355470
v 0.128906 33.953129 3.171880
v -1.976563 34.421879 1.949225
v -11.337690 64.517906 1.058594
v -12.158010 64.076500 0.519531
v 3.496094 -0.773438 2.847656
v 2.644531 4.824219 2.355470
v 2.230469 34.820309 1.949225
v 2.644531 4.824219 -0.800780
v 2.234375 34.726559 -0.480463
v 14.606880 63.629501 -4.348855
v 0.871094 33.378910 0.988286
v 14.243600 63.949810 -3.692605
v 0.843750 34.617191 1.929694
v 3.496094 -0.773438 -1.292969
v -3.761719 41.101559 0.460945
v -3.695313 42.246090 0.148445
v -1.372097 60.265556 16.676380
v -1.372097 60.695236 16.262320
v -5.148438 49.558590 -0.039055
v -4.108727 62.553696 -15.000369
v -4.085938 48.941410 0.101571
v -3.366539 61.975563 -15.488649
v -6.324219 48.214840 0.015633
v -5.835938 46.589840 -0.242180
v -4.944664 62.323223 -14.820680
v -5.038414 61.514633 -15.133180
v -3.757813 47.230469 -0.031242
v -3.464196 61.166973 -15.797240
v -4.640625 46.050781 -0.199212
v -4.300133 60.936504 -15.621461
v -7.902344 55.476559 -0.886710
v -7.300781 54.359379 -0.679679
v 0.460031 77.737808 8.313905
v 1.237375 77.128433 8.317811
v -2.753906 42.488281 -0.066399
v -0.844753 60.824146 16.113880
v -2.074219 41.453129 -0.488274
v -0.317409 60.527275 16.375599
v -2.074219 40.355469 0.007820
v -0.317409 60.097588 16.785749
v -2.953125 40.152340 0.382820
v -0.844753 59.964775 16.934189
v -8.468750 56.160160 0.105478
v 0.354562 78.050308 9.079530
v -7.347656 53.750000 0.089853
v 1.909250 76.827652 9.083436
v -8.542969 55.500000 0.753915
v 1.022531 77.749527 9.849061
v -11.337690 64.517906 -1.089844
v -12.158010 64.076500 -0.550781
v -7.968750 54.320309 0.812509
v 1.799875 77.140152 9.849061
v -10.517380 64.963219 -0.550780
v -3.565758 60.053696 -13.820681
v -3.706383 59.233383 -12.320681
v -1.421227 77.694313 -11.625367
v -1.745446 77.323219 -10.519897
v -5.022789 59.381813 -12.269900
v -2.522789 77.202133 -10.598018
v -4.714196 60.291973 -13.750370
v -2.198571 77.569313 -11.703487
v -10.517380 64.963219 0.519532
v 25.673281 59.234974 -31.891821
v 10.169380 61.953720 1.276145
v 36.688911 92.484978 -29.946505
v 21.188910 95.203720 3.221463
v -18.346251 83.332626 -2.809788
v 18.399851 56.883400 -4.102762
v 8.860784 117.539703 -11.594941
v 45.614689 91.086533 -12.887915
v 28.915470 72.211533 8.842553
v 39.962349 70.645126 -18.454319
v 7.567814 54.039650 1.432394
v 18.614691 52.473255 -25.864483
v 8.872502 67.348251 -8.895728
v 1.399846 57.477154 -27.376200
v 8.575627 48.844341 2.158956
v 1.099064 38.973255 -16.313704
v 28.841249 40.848251 3.037861
v 4.337346 54.981060 -3.165262
v 45.157661 63.516220 -3.223855
v 20.649851 77.649033 -9.434790
v 13.931100 52.039650 2.233175
v 23.157660 39.266220 6.002704
v 1.704533 42.703720 -1.544170
v 10.927190 29.934191 2.221453
v -3.342342 71.121689 -5.661354
v 3.985783 87.977158 -13.270725
v 14.509220 63.172470 -3.548074
v 21.845160 80.027939 -11.161346
v 11.114690 35.484970 -9.872296
v 1.060002 41.942001 0.705830
v 23.931101 40.848251 -2.180889
v 13.872500 47.309189 8.397237
v 17.454531 42.719345 -16.157452
v 5.579533 49.149029 1.596456
v 9.981877 59.266224 -28.001200
v -1.885311 65.695908 -10.239479
v -2.539063 31.742191 -16.261715
v -2.355469 39.835941 4.679695
v -16.052540 47.674164 -23.015623
v -15.867190 55.769531 -2.074210
v -21.722660 36.320312 -11.816404
v -2.832031 51.890629 2.593758
v -43.325970 54.193691 -4.757814
v -24.431440 69.764000 9.644532
v 10.285800 52.096664 -28.910522
v -6.979821 60.491192 -9.480834
v 7.336586 74.463844 -42.676147
v -9.925133 82.854469 -23.246456
v -8.479820 56.124001 -9.894897
v -24.382160 42.405254 -16.871462
v 0.516273 40.846661 3.140256
v -15.378260 27.127911 -3.828496
v -5.444664 66.084930 33.765263
v -11.651700 62.456032 -7.043335
v -25.475910 100.432594 33.401985
v -31.682949 96.803688 -7.410516
v -33.229820 57.956036 -23.187870
v 1.367836 58.690411 -10.172240
v -25.343100 84.682594 -45.515984
v 9.254555 85.416977 -32.500366
v -6.811852 73.737289 -45.777710
v 0.754554 102.213806 -26.137074
v -5.304039 53.791973 -15.000371
v 2.266273 82.268532 4.632449
v -26.100910 69.823219 -4.418334
v -41.776699 53.772438 13.081669
v -3.526696 51.881809 -2.183962
v -19.198570 35.831028 15.316035
v -17.698570 88.077141 -25.875364
v 0.531898 73.135719 -8.992552
v -8.003258 111.784203 -12.687861
v 10.223300 96.846657 4.183234
v 13.113930 80.131821 -30.160517
v -5.155602 74.249001 -7.672239
v 12.414710 107.409203 -22.574574
v -5.850914 101.526299 -0.090203
v 14.663060 41.953060 3.813095
v -4.883816 51.382740 9.313096
v 25.182590 60.871029 4.953722
v 5.627903 70.304619 10.449821
v -17.754910 51.597591 4.238878
v 2.463841 54.851486 13.774029
v -23.786160 71.644463 9.387318
v -3.559597 74.898369 18.926382
v 12.842750 64.246033 18.496689
v 15.397430 70.406181 -3.015026
v -1.782253 49.144455 11.926377
v 0.768528 55.304619 -9.581435
v -12.723660 40.956955 19.988876
v -0.985378 49.265560 2.762314
v 1.166966 50.585865 34.656849
v 12.909150 58.898365 17.426380
v 3.784153 62.249928 22.047470
v 11.456030 44.156178 31.387318
v -3.758816 51.156181 4.234970
v 3.905247 33.062428 13.570906
v 7.209934 66.687431 6.168567
v -2.493191 53.335865 12.977159
v -5.504910 77.828056 12.426382
v -15.219750 64.476486 19.231071
v 9.463840 46.109303 36.145126
v -3.555691 56.949150 7.664659
v 9.276340 75.351479 48.664661
v -3.743191 86.191338 20.184193
v 14.147530 82.815933 -19.881407
v -2.379813 72.929207 13.681091
v 19.635811 116.757301 -6.010307
v 3.104562 106.870590 27.552187
v -22.137621 95.366707 -2.775935
v 4.198312 71.163589 9.911560
v -2.243094 122.644096 14.024850
v 24.096750 98.440926 26.720156
v 8.315500 80.651871 21.501404
v 27.448311 79.007339 2.571718
v -7.133719 64.519058 7.442810
v 11.987380 62.878429 -11.479070
v -17.798630 99.826500 1.425787
v -55.474411 86.205406 6.226566
v -3.697069 63.912441 -1.703125
v -41.368938 50.291340 3.089842
v 6.873243 79.885101 -28.031246
v -12.611130 58.658531 5.320312
v -24.896290 109.502304 -25.542963
v -44.388470 88.275719 7.808599
v -6.673632 58.974945 -15.699221
v -4.759569 43.947590 3.621091
v 13.513870 71.076500 -9.792968
v 15.424020 56.049160 9.527343
v -19.958790 74.205406 -0.464842
v -8.118944 57.596031 -0.097657
v -4.111132 86.717117 -2.441402
v 7.724806 70.111656 -2.074218
v -38.490040 95.685867 -1.925775
v -0.900194 115.471001 10.148449
v -16.759569 58.752281 -1.964844
v 20.822460 78.537437 10.109372
vt 1.0557 0.9375
vt 0.9365 -0.0557
vt 0.0625 1.0557
vt -0.0557 0.0635
vt 1.0557 0.9375
vt 0.9365 -0.0557
vt 0.0625 1.0557
vt -0.0557 0.0635
vt -0.0557 0.0635
vt 0.0625 1.0557
vt 0.9365 -0.0557
vt 1.0557 0.9375
vt -0.0557 0.0635
vt 0.0625 1.0557
vt 0.9365 -0.0557
vt 1.0557 0.9375
vt 1.0557 0.9375
vt 0.9365 -0.0557
vt 0.0625 1.0557
vt -0.0557 0.0635
vt -0.0557 0.0635
vt 0.0625 1.0557
vt 0.9365 -0.0557
vt 1.0557 0.9375
vt -0.0557 0.0635
vt 0.0625 1.0557
vt 0.9365 -0.0557
vt 1.0557 0.9375
vt 1.0557 0.9375
vt 0.9365 -0.0557
vt 0.0625 1.0557
vt -0.0557 0.0635
vt 1.0557 0.9375
vt 0.9365 -0.0557
vt 0.0625 1.0557
vt -0.0557 0.0635
vt 1.0557 0.9375
vt 0.9365 -0.0557
vt 0.0625 1.0557
vt -0.0557 0.0635
vt 1.0557 0.9375
vt 0.9365 -0.0557
vt 0.0625 1.0557
vt -0.0557 0.0635
vt 1.0557 0.9375
vt 0.9365 -0.0557
vt 0.0625 1.0557
vt -0.0557 0.0635
vt -0.0557 0.0635
vt 0.0625 1.0557
vt 0.9365 -0.0557
vt 1.0557 0.9375
vt 1.0557 0.9375
vt 0.9365 -0.0557
vt 0.0625 1.0557
vt -0.0557 0.0635
vt 1.0557 0.9375
vt 0.9365 -0.0557
vt 0.0625 1.0557
vt -0.0557 0.0635
vt -0.0557 0.0635
vt 0.0625 1.0557
vt 0.9365 -0.0557
vt 1.0557 0.9375
vt -0.0557 0.0635
vt 0.0625 1.0557
vt 0.9365 -0.0557
vt 1.0557 0.9375
vt 1.0557 0.9375
vt 0.9365 -0.0557
vt 0.0625 1.0557
vt -0.0557 0.0635
vt 1.0557 0.9375
vt 0.9365 -0.0557
vt 0.0625 1.0557
vt -0.0557 0.0635
vt 1.0557 0.9375
vt 0.9365 -0.0557
vt 0.0625 1.0557
vt -0.0557 0.0635
vt 1.0557 0.9375
vt 0.9365 -0.0557
vt 0.0625 1.0557
vt -0.0557 0.0635
vt -0.0557 0.0635
vt 0.0625 1.0557
vt 0.9365 -0.0557
vt 1.0557 0.9375
vt 1.0557 0.9375
vt 0.9365 -0.0557
vt 0.0625 1.0557
vt -0.0557 0.0635
vt -0.0557 0.0635
vt 0.0625 1.0557
vt 0.9365 -0.0557
vt 1.0557 0.9375
vt 1.0557 0.9375
vt 0.9365 -0.0557
vt 0.0625 1.0557
vt -0.0557 0.0635
vt 1.0557 0.9375
vt 0.9365 -0.0557
vt 0.0625 1.0557
vt -0.0557 0.0635
vt 1.0557 0.9375
vt 0.9365 -0.0557
vt 0.0625 1.0557
vt -0.0557 0.0635
vt 1.0557 0.9375
vt 0.9365 -0.0557
vt 0.0625 1.0557
vt -0.0557 0.0635
vt -0.0557 0.0635
vt 0.0625 1.0557
vt 0.9365 -0.0557
vt 1.0557 0.9375
vt -0.0557 0.0635
vt 0.0625 1.0557
vt 0.9365 -0.0557
vt 1.0557 0.9375
vt 1.0557 0.9375
vt 0.9365 -0.0557
vt 0.0625 1.0557
vt -0.0557 0.0635
vt 1.0557 0.9375
vt 0.9365 -0.0557
vt 0.0625 1.0557
vt -0.0557 0.0635
vt 1.0557 0.9375
vt 0.9365 -0.0557
vt 0.0625 1.0557
vt -0.0557 0.0635
vt -0.0557 0.0635
vt 0.0625 1.0557
vt 0.9365 -0.0557
vt 1.0557 0.9375
vt 0.3291 -2.5664
vt 0.6592 -2.5020
vt 0.3291 0.9395
vt 0.6592 0.9395
vt 0.0000 0.6680
vt 0.0000 1.0000
vt 0.3291 0.6631
vt 0.3291 1.0000
vt 0.3291 -1.5244
vt 0.0000 -1.5918
vt 0.3291 0.6611
vt 1.0000 -2.5371
vt 1.0000 0.9395
vt 0.6592 -2.5527
vt 0.6592 0.9395
vt 1.0000 1.0000
vt 1.0000 0.6631
vt 0.6592 1.0000
vt 0.6592 0.6719
vt 1.0000 -1.5625
vt 0.6592 -1.5469
vt 1.0000 0.9395
vt 0.6592 0.9395
vt 0.3291 1.0000
vt 0.3291 0.6631
vt 0.0000 1.0000
vt 0.0000 0.6680
vt 0.3291 0.6650
vt 0.0000 -1.5625
vt 0.3291 -1.5615
vt 0.6592 0.6641
vt 0.6592 -1.5586
vt 1.0000 -1.5918
vt 0.3291 0.9395
vt 0.0000 0.9395
vt 0.3291 -2.4990
vt 0.0000 -2.5654
vt 1.0000 1.0000
vt 1.0000 0.6631
vt 0.6592 1.0000
vt 0.0000 -2.5361
vt 0.3291 -2.5059
vt 0.0000 0.9395
vt 1.0000 -2.5664
vt 1.0000 0.9395
vt 0.6592 -2.5625
vt 0.3291 -2.5605
vt 0.6592 -2.4902
vt 1.0000 -2.5664
vt 1.0000 0.9395
vt 0.6592 -2.5625
vt 0.6592 0.9395
vt 0.3291 -2.5664
vt 0.6592 -2.5020
vt 0.3291 0.9395
vt 0.6592 0.9395
vt 1.0000 -2.5371
vt 1.0000 0.9395
vt 0.6592 -2.5527
vt 0.6592 0.9395
vt 1.0000 -2.5664
vt 1.0000 0.9395
vt 0.6592 -2.5625
vt 0.0000 -2.5654
vt 0.3291 -2.4990
vt 0.0000 0.9395
vt 0.3291 0.9395
vt 1.0000 -2.5371
vt 1.0000 0.9395
vt 0.6592 -2.5527
vt 0.6592 0.9395
vt 0.0000 -2.5361
vt 0.3291 -2.5059
vt 0.0000 0.9395
vt 0.6592 -2.4902
vt 0.3291 -2.5605
vt 0.3291 -2.5664
vt 0.6592 -2.5020
vt 0.3291 0.9395
vt 0.0000 -2.5361
vt 0.3291 -2.5059
vt 0.0000 0.9395
vt 1.0000 -2.5371
vt 1.0000 0.9395
vt 0.6592 -2.5527
vt 0.6592 0.9395
vt 0.6592 -2.4902
vt 0.3291 -2.5605
vt 0.3291 0.9395
vt 0.0000 -2.5654
vt 0.3291 -2.4990
vt 0.0000 0.9395
vt 0.0000 -2.5361
vt 0.3291 -2.5059
vt 0.0000 0.9395
vt 0.3291 0.9395
vt 0.6592 -2.4902
vt 0.3291 -2.5605
vt 0.3291 0.9395
vt 0.3291 -2.5664
vt 0.6592 -2.5020
vt 0.6592 0.9395
vt 0.0000 0.9395
vt 0.3291 0.9395
vt 1.0000 -2.5664
vt 1.0000 0.9395
vt 0.6592 -2.5625
vt 0.0000 -2.5654
vt 0.3291 -2.4990
vt 0.0000 0.9395
vt 1.0000 0.9395
vt 0.6592 0.9395
vt 1.0000 -2.5664
vt 1.0000 0.9395
vt 0.4121 -2.5195
vt 0.5771 0.9395
vt 0.0000 -2.5361
vt 0.0000 0.9395
vt 0.0000 -2.5654
vt 0.4121 -2.5127
vt 0.0000 0.9395
vt 0.5771 0.9395
vt 1.0000 0.9395
vt 0.3291 -1.5859
vt 0.3291 0.6680
vt 0.3291 0.9395
vt 0.0000 0.9395
vt 1.0000 -2.5371
vn 0.8522 -0.3071 0.4235
vn 0.8522 -0.3072 0.4235
vn 0.8522 -0.3072 0.4234
vn -0.1372 -0.1426 -0.9802
vn 0.5665 -0.7772 0.2739
vn 0.9415 -0.1839 -0.2825
vn 0.9414 -0.1840 -0.2825
vn 0.9414 -0.1841 -0.2825
vn 0.9414 -0.1842 -0.2826
vn -0.0629 0.3076 0.9494
vn -0.0630 0.3077 0.9494
vn -0.0630 0.3079 0.9493
vn -0.3253 0.0438 0.9446
vn -0.3253 0.0437 0.9446
vn -0.3253 0.0436 0.9446
vn 0.0637 0.3875 0.9197
vn 0.0638 0.3875 0.9196
vn 0.0639 0.3876 0.9196
vn 0.0279 -0.8412 0.5400
vn 0.0280 -0.8411 0.5402
vn 0.0280 -0.8410 0.5403
vn 0.7654 0.5655 0.3072
vn 0.7656 0.5653 0.3071
vn 0.7658 0.5651 0.3071
vn 0.7881 0.5718 -0.2279
vn 0.7881 0.5718 -0.2280
vn 0.7881 0.5717 -0.2280
vn 0.1799 0.5417 -0.8211
vn 0.1799 0.5415 -0.8212
vn 0.1799 0.5414 -0.8213
vn 0.7627 0.4089 0.5011
vn 0.5868 -0.2971 -0.7532
vn 0.5868 -0.2972 -0.7532
vn -0.8515 -0.4948 0.1735
vn 0.2759 -0.6629 -0.6960
vn -0.9763 0.1565 0.1492
vn -0.9763 0.1565 0.1493
vn -0.9763 0.1565 0.1494
vn -0.3381 -0.5229 -0.7825
vn -0.3381 -0.5229 -0.7824
vn 0.7161 0.0920 -0.6919
vn 0.7160 0.0920 -0.6920
vn 0.7160 0.0919 -0.6921
vn 0.7862 -0.1468 0.6003
vn 0.1924 -0.1653 0.9673
vn 0.1924 -0.1651 0.9673
vn 0.1923 -0.1650 0.9674
vn 0.3581 0.3319 -0.8727
vn 0.3582 0.3319 -0.8727
vn 0.7367 -0.6682 -0.1039
vn 0.7366 -0.6683 -0.1040
vn 0.7366 -0.6683 -0.1041
vn -0.5731 0.8195 0.0047
vn -0.5731 0.8195 0.0048
vn -0.8788 -0.1366 0.4572
vn -0.8788 -0.1364 0.4573
vn -0.8788 -0.1363 0.4573
vn 0.4960 0.0804 0.8646
vn 0.4957 0.0804 0.8648
vn 0.4954 0.0804 0.8649
vn -0.9194 -0.1598 0.3595
vn 0.8900 -0.2883 0.3533
vn 0.8900 -0.2883 0.3534
vn 0.8899 -0.2882 0.3534
vn 0.5267 0.1330 -0.8396
vn 0.5268 0.1330 -0.8395
vn 0.3966 -0.7889 0.4694
vn 0.3966 -0.7889 0.4693
vn 0.3966 -0.7890 0.4692
vn -0.1378 0.0322 -0.9899
vn -0.1377 0.0323 -0.9899
vn -0.1377 0.0324 -0.9899
vn 0.5431 0.5277 0.6531
vn 0.5430 0.5277 0.6532
vn 0.5421 -0.6364 -0.5487
vn 0.5421 -0.6365 -0.5487
vn 0.5421 -0.6365 -0.5486
vn -0.0683 -0.0707 -0.9952
vn -0.2355 -0.1396 0.9618
vn -0.2355 -0.1395 0.9618
vn -0.7988 0.4539 0.3947
vn -0.7927 0.4538 0.4071
vn -0.4936 0.1512 -0.8564
vn -0.4946 0.1505 -0.8560
vn -0.4998 0.0236 -0.8658
vn -0.4992 0.0238 -0.8661
vn -0.4992 0.0235 -0.8662
vn -0.0015 -0.1584 -0.9874
vn 0.0328 -0.1729 -0.9844
vn -0.4946 0.1505 0.8560
vn -0.5001 0.0265 0.8656
vn -0.4976 0.0262 0.8670
vn -0.5201 -0.1368 0.8431
vn -0.4953 -0.1286 0.8591
vn 0.4950 0.1505 0.8558
vn 0.4951 0.1505 0.8557
vn 0.5007 0.0190 0.8654
vn 0.4970 0.0186 0.8675
vn 0.9999 0.0138 0.0000
vn 0.9999 0.0132 0.0001
vn 0.9999 0.0144 0.0009
vn 0.9999 0.0137 0.0011
vn 0.4997 0.0155 -0.8660
vn 0.4991 0.0167 -0.8664
vn 0.4990 0.0161 -0.8665
vn 0.7864 -0.2580 0.5613
vn 0.8503 -0.3065 0.4278
vn 0.4950 0.1511 -0.8557
vn 0.4942 0.1505 -0.8562
vn 0.4998 0.0162 -0.8660
vn -0.8801 0.3883 -0.2731
vn -0.7762 0.2786 -0.5656
vn -0.0264 0.1998 0.9795
vn -0.0164 0.1950 0.9807
vn 0.8000 -0.4360 -0.4121
vn 0.7584 -0.4327 -0.4874
vn -0.9955 0.0740 0.0593
vn -0.9955 0.0658 0.0682
vn 0.3245 0.7028 0.6330
vn 0.7138 0.5208 0.4683
vn -0.9245 -0.2295 -0.3042
vn -0.9942 0.0979 0.0449
vn 0.9700 0.1728 0.1708
vn 0.9937 -0.1042 -0.0413
vn 0.7514 -0.5012 -0.4291
vn 0.0525 -0.7191 -0.6929
vn 0.5426 0.1386 -0.8285
vn 0.2267 0.2832 -0.9319
vn -0.6438 0.5835 0.4950
vn -0.0683 0.7556 0.6515
vn -0.2779 -0.6710 -0.6874
vn -0.7146 -0.4954 -0.4939
vn -0.3239 0.6447 -0.6924
vn -0.3491 0.6410 -0.6836
vn 0.4407 0.5715 -0.6923
vn 0.5938 0.4967 -0.6330
vn 0.9972 -0.0311 -0.0687
vn 0.9977 -0.0470 -0.0492
vn 0.4264 -0.6075 0.6702
vn 0.3533 -0.6216 0.6991
vn -0.5307 -0.5079 0.6785
vn -0.5907 -0.4794 0.6491
vn -0.5701 0.4875 -0.6613
vn -0.8344 0.4605 -0.3029
vn 0.9429 -0.2866 -0.1695
vn 0.7436 -0.0381 -0.6675
vn -0.9348 0.2968 0.1952
vn -0.7449 0.0482 0.6654
vn -0.4815 -0.1685 -0.8601
vn -0.4771 -0.1671 -0.8628
vn -0.4319 -0.1662 0.8865
vn -0.2234 -0.2850 0.9321
vn 0.4351 -0.4863 0.7577
vn 0.8368 -0.4546 0.3051
vn 0.4940 0.2078 -0.8442
vn 0.4633 0.1934 -0.8648
vn 0.9920 -0.1237 0.0253
vn 0.9625 -0.1281 0.2393
vn 0.0274 -0.0972 0.9949
vn -0.0858 -0.0895 0.9923
vn -0.0342 0.1275 -0.9912
vn 0.0826 0.1054 -0.9910
vn -0.9597 0.1665 -0.2262
vn -0.9450 -0.3270 0.0000
vn -0.9449 -0.3259 -0.0304
vn -0.9996 0.0288 0.0027
vn 0.9886 0.1504 0.0000
vn -0.9996 0.0285 0.0000
vn -0.9886 0.1504 0.0000
vn 0.9212 0.3889 -0.0135
vn 0.4446 0.2291 0.8659
vn 0.4216 0.2190 0.8800
vn -0.9824 0.1485 -0.1135
vn 0.9214 0.3886 0.0000
usemtl None
s 1
f 81/1/1 83/2/2 82/3/2
f 82/3/2 83/2/2 84/4/3
f 85/5/4 87/6/4 86/7/4
f 86/7/4 87/6/4 88/8/4
f 89/9/5 91/10/5 90/11/5
f 90/11/5 91/10/5 92/12/5
f 93/13/6 95/14/7 94/15/8
f 94/15/8 95/14/7 96/16/9
f 97/17/10 99/18/11 98/19/11
f 98/19/11 99/18/11 100/20/12
f 101/21/13 103/22/14 102/23/14
f 102/23/14 103/22/14 104/24/15
f 105/25/16 107/26/17 106/27/17
f 106/27/17 107/26/17 108/28/18
f 109/29/19 111/30/20 110/31/20
f 110/31/20 111/30/20 112/32/21
f 113/33/22 115/34/23 114/35/23
f 114/35/23 115/34/23 116/36/24
f 117/37/25 119/38/25 118/39/26
f 118/39/26 119/38/25 120/40/27
f 121/41/28 123/42/29 122/43/29
f 122/43/29 123/42/29 124/44/30
f 125/45/31 127/46/31 126/47/31
f 126/47/31 127/46/31 128/48/31
f 129/49/32 131/50/33 130/51/33
f 130/51/33 131/50/33 132/52/33
f 133/53/34 135/54/34 134/55/34
f 134/55/34 135/54/34 136/56/34
f 137/57/35 139/58/35 138/59/35
f 138/59/35 139/58/35 140/60/35
f 141/61/36 143/62/37 142/63/37
f 142/63/37 143/62/37 144/64/38
f 145/65/39 147/66/39 146/67/39
f 146/67/39 147/66/39 148/68/40
f 149/69/41 151/70/42 150/71/42
f 150/71/42 151/70/42 152/72/43
f 153/73/44 155/74/44 154/75/44
f 154/75/44 155/74/44 156/76/44
f 157/77/45 159/78/46 158/79/46
f 158/79/46 159/78/46 160/80/47
f 161/81/48 163/82/49 162/83/49
f 162/83/49 163/82/49 164/84/49
f 165/85/50 167/86/51 166/87/51
f 166/87/51 167/86/51 168/88/52
f 169/89/53 171/90/54 170/91/54
f 170/91/54 171/90/54 172/92/54
f 173/93/55 175/94/56 174/95/56
f 174/95/56 175/94/56 176/96/57
f 177/97/58 179/98/59 178/99/59
f 178/99/59 179/98/59 180/100/60
f 181/101/61 183/102/61 182/103/61
f 182/103/61 183/102/61 184/104/61
f 185/105/62 187/106/63 186/107/63
f 186/107/63 187/106/63 188/108/64
f 189/109/65 191/110/66 190/111/66
f 190/111/66 191/110/66 192/112/66
f 193/113/67 195/114/68 194/115/68
f 194/115/68 195/114/68 196/116/69
f 197/117/70 199/118/71 198/119/71
f 198/119/71 199/118/71 200/120/72
f 201/121/73 203/122/74 202/123/74
f 202/123/74 203/122/74 204/124/74
f 205/125/75 207/126/75 206/127/76
f 206/127/76 207/126/75 208/128/77
f 209/129/78 211/130/78 210/131/78
f 210/131/78 211/130/78 212/132/78
f 213/133/79 215/134/79 214/135/79
f 214/135/79 215/134/79 216/136/80
usemtl None_MODELS.bin.013.000.png
f 1/137/81 3/138/81 2/139/81
f 2/139/82 3/138/82 4/140/82
f 5/141/83 7/142/83 6/143/83
f 6/143/84 7/142/84 8/144/84
f 9/145/85 10/146/85 6/147/86
f 6/147/86 10/146/85 5/141/87
f 11/148/88 13/149/88 12/150/88
f 12/150/89 13/149/89 14/151/89
f 15/152/90 17/153/90 16/154/90
f 16/154/90 17/153/90 18/155/90
f 17/153/91 19/156/91 18/155/91
f 18/155/92 19/156/92 20/157/92
f 19/156/93 21/158/93 20/157/93
f 20/157/94 21/158/94 22/159/94
f 23/160/95 24/161/95 15/162/95
f 15/162/96 24/161/96 17/163/96
f 17/163/97 24/164/97 19/165/97
f 19/165/98 24/164/98 25/166/98
f 24/164/99 26/167/100 25/166/101
f 25/166/101 26/167/100 27/168/102
f 26/167/103 10/169/104 27/168/105
f 28/170/106 30/171/106 29/172/106
f 29/172/107 30/171/107 31/173/107
f 7/174/108 5/175/108 32/176/108
f 32/176/109 5/175/109 26/167/109
f 5/175/110 10/169/104 26/167/103
f 11/177/111 1/178/111 13/179/111
f 13/179/112 1/178/112 2/139/112
f 31/180/113 30/181/113 3/182/113
f 3/182/114 30/181/114 4/140/114
f 28/170/115 29/183/115 14/151/115
f 14/151/116 29/183/116 12/184/116
f 33/185/117 35/186/117 34/187/117
f 34/187/118 35/186/118 36/188/118
f 37/189/119 39/190/119 38/191/119
f 38/191/120 39/190/120 40/192/120
f 41/193/121 43/194/121 42/195/121
f 42/195/122 43/194/122 44/196/122
f 45/197/123 46/198/123 39/199/123
f 39/199/124 46/198/124 40/192/124
f 45/200/125 47/201/125 46/202/125
f 46/202/126 47/201/126 48/203/126
f 49/204/127 51/205/127 50/206/127
f 50/206/128 51/205/128 52/207/128
f 41/208/129 37/209/129 43/210/129
f 43/210/130 37/209/130 38/191/130
f 42/211/131 44/196/131 47/212/131
f 47/212/132 44/196/132 48/203/132
f 53/213/133 34/214/133 54/215/133
f 54/215/134 34/214/134 36/188/134
f 55/216/135 53/217/135 56/218/135
f 56/218/136 53/217/136 54/215/136
f 55/219/137 56/220/137 57/221/137
f 57/221/138 56/220/138 58/222/138
f 57/223/139 58/222/139 59/224/139
f 59/224/140 58/222/140 60/225/140
f 33/226/141 59/227/141 35/228/141
f 35/228/142 59/227/142 60/225/142
f 49/229/143 61/230/143 51/231/143
f 51/231/144 61/230/144 62/232/144
f 50/233/145 52/207/145 63/234/145
f 63/234/146 52/207/146 64/235/146
f 61/236/147 65/237/147 62/232/147
f 62/232/148 65/237/148 66/238/148
f 10/146/149 9/145/149 67/239/149
f 67/239/150 9/145/150 68/240/150
f 69/241/151 70/242/151 65/243/151
f 65/243/152 70/242/152 66/238/152
f 69/244/153 63/245/153 70/246/153
f 70/246/154 63/245/154 64/235/154
f 10/169/155 67/247/155 27/168/155
f 27/168/156 67/247/156 71/248/156
f 72/249/157 74/250/157 73/251/157
f 73/251/158 74/250/158 75/252/158
f 76/253/159 73/251/159 77/254/159
f 77/254/160 73/251/160 75/252/160
f 72/255/161 78/256/161 74/257/161
f 74/257/162 78/256/162 79/258/162
f 78/256/163 77/259/163 79/258/163
f 68/240/164 9/260/164 22/159/164
f 22/159/165 9/260/165 20/157/165
f 9/260/166 18/155/166 20/157/166
f 24/164/167 23/160/167 26/167/167
f 26/167/167 23/160/167 32/176/167
f 9/260/168 6/261/168 18/155/168
f 18/155/169 6/261/169 8/144/169
f 27/168/170 80/262/170 25/166/170
f 25/166/171 80/262/171 21/263/171
f 18/155/169 8/144/169 16/154/169
f 19/165/172 25/166/172 21/263/172
f 76/264/173 77/259/173 78/256/173
f 80/262/174 27/168/174 71/248/174
