# Blender v2.79 (sub 0) OBJ File: 'StoneFloor_GrassTwo.blend'
# www.blender.org
mtllib StoneFloor_GrassTwo.mtl
o StoneFloor_GrassTwo
v -2.618057 -0.232513 10.287414
v -6.428146 14.839101 9.199956
v 9.221863 -0.232488 -8.804204
v 6.479568 14.839184 -11.664143
v -8.013412 -0.232556 -8.318090
v 9.912384 -0.232533 1.547369
v 10.577942 14.839373 -2.349066
v -5.160248 14.839299 -11.053883
v -3.507935 7.580817 10.033427
v 8.581375 7.580899 -9.472177
v 10.066147 7.582293 0.647235
v -7.354294 7.582218 -8.950092
v 0.014877 7.580858 -1.258203
v 0.010254 -0.232501 0.028337
v 0.118912 14.839152 -5.565227
v 0.010254 -0.232501 0.028337
v 0.014877 7.580858 -1.258202
v 0.118912 14.839152 -5.565226
vt 0.590126 0.799779
vt 0.590126 0.992084
vt 0.371986 0.992084
vt 0.296337 0.799779
vt 0.772205 0.546111
vt 0.579285 0.546111
vt 0.579284 0.208939
vt 0.772205 0.284211
vt 0.590126 0.607474
vt 0.274213 0.607474
vt 0.965125 0.546111
vt 0.965125 0.306950
vt 0.007886 0.799779
vt 0.007886 0.607474
vt 0.007886 0.992084
vt 0.772205 0.020286
vt 0.965125 0.020286
vt 0.579284 0.020286
vn 0.6694 0.2543 0.6981
vn 0.6385 0.3860 0.6659
vn 0.7440 0.3608 0.5624
vn 0.8333 0.2256 0.5047
vn -0.1948 0.2958 0.9352
vn -0.2169 0.4461 0.8683
vn -0.4904 0.4259 0.7604
vn -0.4558 0.2795 0.8450
vn 0.6873 0.1176 0.7168
vn 0.8640 0.1014 0.4932
vn -0.1675 0.1383 0.9761
vn -0.4517 0.1337 0.8821
vn 0.9312 0.1898 0.3113
vn 0.9584 0.0813 0.2736
vn 0.8913 0.2949 0.3444
vn -0.6979 0.2536 0.6698
vn -0.7167 0.1149 0.6879
vn -0.6652 0.3873 0.6384
usemtl StoneFloorGrass
s 1
f 10/1/1 4/2/2 15/3/3 13/4/4
f 11/5/5 7/6/6 18/7/7 17/8/8
f 3/9/9 10/1/1 13/4/4 14/10/10
f 6/11/11 11/5/5 17/8/8 16/12/12
f 14/10/10 13/4/4 9/13/13 1/14/14
f 13/4/4 15/3/3 2/15/15 9/13/13
f 16/12/12 17/8/8 12/16/16 5/17/17
f 17/8/8 18/7/7 8/18/18 12/16/16
