# Blender v2.79 (sub 0) OBJ File: 'StoneFloor_Ground_LOD1.blend'
# www.blender.org
mtllib StoneFloor_Ground_LOD1.mtl
o StoneFloor_Ground_LOD1
v -48.177155 -3.915695 48.177151
v 48.177155 -3.915695 48.177151
v -48.177155 -3.915695 -48.177155
v 48.177155 -3.915695 -48.177155
v -34.685333 -17.363840 -34.685364
v -34.685333 -17.363840 34.685352
v 34.685364 -17.363840 34.685352
v 34.685364 -17.363840 -34.685364
vt 0.385307 0.376782
vt 0.107221 0.376782
vt 0.107221 0.098697
vt 0.385307 0.098696
vt 0.461670 0.044612
vt 0.461670 0.430866
vt 0.439392 0.453145
vt 0.053137 0.453146
vt 0.030858 0.430867
vt 0.030857 0.044612
vt 0.053136 0.022333
vt 0.439391 0.022333
vn 0.2996 0.9058 -0.2996
vn -0.2996 0.9058 -0.2996
vn -0.2996 0.9058 0.2996
vn 0.2996 0.9058 0.2996
vn 0.7060 0.7083 0.0000
vn 0.0000 0.7083 -0.7060
vn -0.7060 0.7083 0.0000
vn 0.0000 0.7083 0.7060
usemtl StoneFloorDetails
s 1
f 6/1/1 7/2/2 8/3/3 5/4/4
f 6/1/1 5/4/4 3/5/5 1/6/5
f 7/2/2 6/1/1 1/7/6 2/8/6
f 8/3/3 7/2/2 2/9/7 4/10/7
f 5/4/4 8/3/3 4/11/8 3/12/8
