# Blender v2.79 (sub 0) OBJ File: 'StoneFloor_FragmentThree_LOD1.blend'
# www.blender.org
mtllib StoneFloor_FragmentThree_LOD1.mtl
o StoneFloor_FragmentThree_LOD1
v -3.994247 4.410809 -5.556037
v 4.369156 7.705625 2.828107
v 1.365417 7.430261 -2.698946
v 1.019760 3.246135 7.165046
v -6.006042 1.177028 -1.284748
v -2.484039 2.419703 2.544978
v 4.845184 2.434615 4.429734
v 5.684555 4.051426 2.841212
v 1.000931 -0.226462 2.973790
v 4.274460 4.580257 -0.840986
v -4.571655 0.580730 -2.827787
v -0.444778 -0.047539 -3.000900
v 4.741776 1.754981 -0.127283
v 1.131317 4.421286 -4.696354
v -2.130783 -0.240790 0.460936
vt 0.879348 0.548022
vt 0.905118 0.540408
vt 0.904130 0.575436
vt 0.879285 0.578172
vt 0.931659 0.551960
vt 0.926953 0.575925
vt 0.208447 0.917416
vt 0.211945 0.898656
vt 0.238231 0.922021
vt 0.216860 0.923083
vt 0.231266 0.977279
vt 0.219857 0.977477
vt 0.222877 0.957816
vt 0.238189 0.951643
vt 0.222165 0.940075
vt 0.200898 0.934039
vt 0.188043 0.935414
vt 0.185768 0.954442
vt 0.172333 0.947916
vt 0.173231 0.919164
vt 0.202691 0.979980
vt 0.203252 0.990187
vt 0.181922 0.975329
vt 0.205819 0.960682
vt 0.191445 0.917215
vn -0.5908 0.7500 0.2974
vn -0.5878 0.7529 0.2961
vn -0.5878 0.7528 0.2962
vn -0.5846 0.7559 0.2948
vn 0.8643 -0.0292 0.5022
vn 0.6268 0.2778 0.7280
vn 0.2005 -0.4984 0.8434
vn 0.7312 -0.3859 0.5625
vn -0.4776 -0.7576 0.4449
vn -0.3713 -0.8996 0.2300
vn -0.3006 -0.9172 0.2614
vn -0.5186 -0.6583 0.5456
vn 0.0240 -0.9324 0.3606
vn 0.7909 -0.5189 -0.3244
vn 0.8390 0.2147 -0.4999
vn 0.4593 0.0702 -0.8855
vn 0.6034 0.4859 -0.6322
vn 0.8367 0.3755 -0.3986
vn -0.4976 -0.4522 -0.7402
vn -0.7536 -0.3022 -0.5837
vn -0.0735 -0.2678 -0.9607
vn 0.1828 -0.8164 -0.5478
vn 0.9194 0.2300 -0.3191
usemtl StoneFloorDetails
s 1
f 2/1/1 3/2/2 6/3/3 4/4/1
f 6/3/3 3/2/2 1/5/4 5/6/4
f 8/7/5 2/8/6 4/9/7 7/10/8
f 5/11/9 11/12/10 15/13/11 6/14/12
f 9/15/13 4/9/7 6/14/12
f 7/10/8 4/9/7 9/15/13
f 9/15/13 13/16/14 7/10/8
f 10/17/15 14/18/16 3/19/17 2/20/18
f 11/21/19 5/22/20 1/23/21
f 1/23/21 3/19/17 14/18/16
f 12/24/22 14/18/16 13/16/14
f 10/17/15 8/25/23 13/16/14
f 2/20/18 8/25/23 10/17/15
f 13/16/14 8/7/5 7/10/8
f 11/12/10 12/24/22 15/13/11
f 14/18/16 10/17/15 13/16/14
f 15/13/11 12/24/22 9/15/13
f 14/18/16 12/24/22 1/23/21
f 6/14/12 15/13/11 9/15/13
f 12/24/22 11/21/19 1/23/21
f 9/15/13 12/24/22 13/16/14
