# Blender v2.79 (sub 0) OBJ File: 'StoneFloor_GrassTwo_LOD1.blend'
# www.blender.org
mtllib StoneFloor_GrassTwo_LOD1.mtl
o StoneFloor_GrassTwo_LOD1
v -7.755493 -0.232513 7.474491
v -10.497787 14.839101 4.614561
v 9.221848 -0.232488 -8.804204
v 6.479553 14.839184 -11.664143
v -8.013428 -0.232556 -8.318090
v 6.688019 -0.232533 7.014321
v 9.541183 14.839373 4.278519
v -5.160263 14.839299 -11.053883
v -8.395981 7.580817 6.806527
v 8.581360 7.580899 -9.472177
v 7.347153 7.582293 6.382310
v -7.354309 7.582218 -8.950092
vt 0.590126 0.799779
vt 0.590126 0.992084
vt 0.007886 0.992084
vt 0.007886 0.799779
vt 0.772205 0.546111
vt 0.579285 0.546111
vt 0.579284 0.020286
vt 0.772205 0.020286
vt 0.590126 0.607474
vt 0.007886 0.607474
vt 0.965125 0.546111
vt 0.965125 0.020286
vn 0.6694 0.2543 0.6981
vn 0.6385 0.3860 0.6659
vn -0.6982 0.2537 0.6695
vn -0.6658 0.3863 0.6384
vn 0.6873 0.1176 0.7168
vn -0.7169 0.1161 0.6874
usemtl StoneFloorGrass
s 1
f 10/1/1 4/2/2 2/3/2 9/4/1
f 11/5/3 7/6/4 8/7/4 12/8/3
f 3/9/5 10/1/1 9/4/1 1/10/5
f 6/11/6 11/5/3 12/8/3 5/12/6
