# Blender v2.79 (sub 0) OBJ File: 'StoneFloor_FragmentFive.blend'
# www.blender.org
mtllib StoneFloor_FragmentFive.mtl
o StoneFloor_FragmentFive
v -1.177689 -0.140388 4.232207
v 8.110397 -0.065058 -4.307112
v 8.632935 -0.066104 0.407288
v -2.722412 -0.175424 -4.097061
v -8.503464 0.041567 2.288408
v -2.281891 2.412648 -4.300497
v 6.548920 2.760708 -4.529951
v 8.226227 0.727461 -4.343976
v 2.352051 3.580654 -4.681074
v 8.451950 2.884223 -2.732091
v 8.816605 0.659281 0.450640
v 5.986603 3.163255 1.506647
v 1.826721 2.976759 3.099574
v -1.191513 0.757988 4.376063
v 6.107025 4.400114 1.049064
v -4.659134 3.647529 -2.793433
v -3.976471 5.670300 -1.763848
v -2.043213 6.321621 -1.832044
v 0.582764 6.296382 -3.089521
v 2.980408 4.856462 -4.109210
v -4.505936 5.809196 2.021470
v -3.098282 3.812920 3.924303
v -0.942261 4.174751 3.622417
v 4.372543 6.360548 -1.679800
v -0.247955 5.261405 2.877394
v 2.203674 4.218919 2.531601
v -0.989090 6.165290 2.254159
v -2.742371 6.075526 2.844737
vt 0.977750 0.682634
vt 0.933009 0.686833
vt 0.936430 0.650843
vt 0.981131 0.662676
vt 0.905212 0.670275
vt 0.027104 0.890306
vt 0.028544 0.921631
vt 0.021124 0.931577
vt 0.008867 0.927436
vt 0.022271 0.968750
vt 0.013565 0.977706
vt 0.009610 0.977520
vt 0.027131 0.980473
vt 0.064404 0.980164
vt 0.078051 0.969140
vt 0.073904 0.990424
vt 0.081283 0.969303
vt 0.077578 0.990940
vt 0.068379 0.958156
vt 0.068743 0.940338
vt 0.077952 0.926378
vt 0.081824 0.925755
vt 0.025283 0.950583
vt 0.031251 0.952935
vt 0.037079 0.942640
vt 0.036837 0.924879
vt 0.038698 0.931995
vt 0.050163 0.916071
vt 0.072430 0.891505
vt 0.063822 0.919897
vt 0.045656 0.959431
vt 0.063317 0.959621
vt 0.063646 0.929098
vt 0.063428 0.942617
vt 0.059039 0.932821
vt 0.054480 0.923933
vt 0.054276 0.930980
vn 0.0092 -1.0000 0.0012
vn -0.0072 -1.0000 0.0048
vn -0.0052 -1.0000 0.0044
vn -0.0273 -0.9996 0.0093
vn -0.8474 0.2753 -0.4540
vn -0.6693 0.3277 -0.6668
vn -0.3370 0.1221 -0.9335
vn -0.4260 -0.1252 -0.8960
vn 0.2825 0.3519 -0.8924
vn 0.1910 0.0807 -0.9783
vn -0.0153 -0.0870 -0.9961
vn 0.5032 0.5882 -0.6331
vn 0.9326 0.3430 0.1120
vn 0.8647 0.0434 0.5004
vn 0.9852 -0.1240 -0.1185
vn 0.8218 -0.2092 0.5300
vn 0.9746 -0.1918 -0.1155
vn 0.5189 0.2773 0.8086
vn 0.3178 0.1892 0.9291
vn 0.0620 -0.0086 0.9980
vn 0.0546 -0.1063 0.9928
vn -0.0458 0.1770 -0.9831
vn 0.1318 0.5878 -0.7982
vn -0.0986 0.8342 -0.5426
vn -0.5020 0.7493 -0.4318
vn -0.2120 0.8986 -0.3842
vn -0.5994 0.7491 0.2821
vn -0.3813 0.1353 0.9145
vn -0.1891 0.2729 0.9433
vn 0.3612 0.9291 -0.0791
vn 0.5386 0.6587 0.5254
vn 0.1832 0.3299 0.9261
vn 0.3314 0.5345 0.7775
vn 0.2882 0.5705 0.7691
vn -0.1533 0.8071 0.5701
vn 0.1559 0.9019 0.4029
usemtl StoneFloorDetails
s 1
f 3/1/1 1/2/2 4/3/3 2/4/1
f 4/3/3 1/2/2 5/5/4
f 5/6/5 16/7/6 6/8/7 4/9/8
f 7/10/9 8/11/10 2/12/11 4/9/8
f 7/10/9 10/13/12 8/11/10
f 10/14/13 11/15/14 8/16/15
f 3/17/16 2/18/17 8/16/15 11/15/14
f 12/19/18 13/20/19 14/21/20 11/15/14
f 1/22/21 3/17/16 11/15/14 14/21/20
f 9/23/22 7/10/9 4/9/8 6/8/7
f 20/24/23 7/10/9 9/23/22
f 9/23/22 6/8/7 19/25/24 20/24/23
f 17/26/25 18/27/26 6/8/7 16/7/6
f 18/27/26 19/25/24 6/8/7
f 21/28/27 17/26/25 16/7/6 5/6/5
f 21/28/27 5/29/28 22/30/29
f 5/29/28 1/22/21 14/21/20 22/30/29
f 10/13/12 7/10/9 20/24/23 24/31/30
f 20/24/23 19/25/24 24/31/30
f 24/31/30 15/32/31 10/14/13
f 10/14/13 15/32/31 12/19/18 11/15/14
f 23/33/32 22/30/29 14/21/20 13/20/19
f 26/34/33 25/35/34 23/33/32 13/20/19
f 13/20/19 12/19/18 15/32/31 26/34/33
f 21/28/27 22/30/29 28/36/35
f 27/37/36 25/35/34 26/34/33 24/31/30
f 24/31/30 26/34/33 15/32/31
f 22/30/29 23/33/32 25/35/34 28/36/35
f 27/37/36 28/36/35 25/35/34
f 18/27/26 27/37/36 24/31/30 19/25/24
f 18/27/26 17/26/25 21/28/27 28/36/35
f 27/37/36 18/27/26 28/36/35
