# Blender v2.79 (sub 0) OBJ File: 'StoneFloor_FragmentFour_LOD2.blend'
# www.blender.org
mtllib StoneFloor_FragmentFour_LOD2.mtl
o StoneFloor_FragmentFour_LOD2
v -5.599106 0.016068 1.709267
v 2.980621 7.029809 -0.089638
v 2.578766 3.176381 -5.467079
v -2.318481 -0.242487 -3.479477
v -1.356674 6.540720 5.076416
v 1.266876 -0.216458 4.247925
v 4.179337 0.003794 0.251106
vt 0.919804 0.633944
vt 0.902845 0.611308
vt 0.922500 0.592998
vt 0.948589 0.631823
vt 0.948589 0.595635
vt 0.160685 0.936905
vt 0.157966 0.964137
vt 0.134518 0.946293
vt 0.094074 0.952188
vt 0.107719 0.930798
vt 0.122408 0.962761
vt 0.141095 0.986392
vt 0.130750 0.918749
vt 0.103222 0.985988
vn -0.6235 0.6491 -0.4358
vn -0.6279 0.6541 -0.4218
vn -0.6213 0.6465 -0.4427
vn 0.9702 0.1566 -0.1847
vn 0.9238 0.1932 0.3305
vn 0.8142 -0.5719 0.1005
vn -0.1776 -0.8645 0.4701
vn 0.1344 -0.9681 -0.2116
vn 0.3192 -0.5896 0.7420
vn 0.7628 0.1897 0.6182
vn 0.3322 -0.7822 -0.5270
vn -0.3435 -0.2446 0.9067
usemtl StoneFloorDetails
s 1
f 2/1/1 3/2/2 4/3/1
f 5/4/3 2/1/1 4/3/1 1/5/3
f 3/6/4 2/7/5 7/8/6
f 1/9/7 4/10/8 7/8/6 6/11/9
f 2/7/5 5/12/10 6/11/9 7/8/6
f 4/10/8 3/13/11 7/8/6
f 5/14/12 1/9/7 6/11/9
