# Blender v2.79 (sub 0) OBJ File: 'StoneFloor_FragmentTwo.blend'
# www.blender.org
mtllib StoneFloor_FragmentTwo.mtl
o StoneFloor_FragmentTwo
v -4.548935 -0.051605 1.448556
v 0.530930 -0.039295 -4.968837
v 4.684982 0.007583 -1.037528
v -0.684601 -0.019298 5.019536
v -5.025803 0.055918 -3.048821
v 1.855438 2.904722 -3.405951
v -2.025894 2.670556 -4.076529
v -0.510422 4.717741 -2.891932
v -3.763580 2.125581 -3.519108
v -4.246902 2.557959 1.865437
v -1.874084 5.273321 -1.511853
v -3.702576 3.542166 -2.100903
v -4.752716 2.487144 -1.170453
v -1.526855 2.322951 4.121805
v 1.487366 2.435621 3.298451
v 3.991882 1.864222 0.118937
v 1.200546 3.482350 3.030851
v 3.048279 3.502943 -0.667286
v -1.913330 5.473648 0.465984
v -0.644882 5.093714 1.899502
v -3.735794 3.766068 1.078612
v 0.736191 5.297896 0.760158
v -2.614136 3.497211 2.969004
v -1.623077 3.965122 2.250715
vt 0.842854 0.498684
vt 0.877391 0.497971
vt 0.877391 0.520426
vt 0.842564 0.523091
vt 0.864676 0.534953
vt 0.286081 0.989040
vt 0.291984 0.974174
vt 0.311957 0.980822
vt 0.276170 0.975036
vt 0.283130 0.966014
vt 0.259389 0.982551
vt 0.268030 0.975096
vt 0.267764 0.965781
vt 0.278106 0.959019
vt 0.248602 0.944463
vt 0.264979 0.930462
vt 0.272508 0.939005
vt 0.262922 0.947740
vt 0.258983 0.967170
vt 0.287158 0.922283
vt 0.283811 0.933320
vt 0.320480 0.935441
vt 0.311697 0.940750
vt 0.295315 0.935859
vt 0.293682 0.939865
vt 0.301883 0.964814
vt 0.310590 0.969713
vt 0.307900 0.949599
vt 0.266153 0.955448
vt 0.274383 0.944601
vt 0.281563 0.950963
vt 0.287025 0.946758
vt 0.292633 0.952208
vt 0.280018 0.939261
vt 0.283268 0.942615
vn 0.0072 -1.0000 0.0029
vn -0.0030 -1.0000 -0.0049
vn -0.0016 -1.0000 -0.0038
vn -0.0245 -0.9995 -0.0213
vn 0.2175 0.2124 -0.9527
vn 0.5359 0.4901 -0.6875
vn 0.7970 0.3044 -0.5216
vn -0.2334 0.3909 -0.8904
vn 0.0817 0.7904 -0.6071
vn -0.6152 0.2206 -0.7569
vn -0.5635 0.3405 -0.7527
vn -0.5851 0.5807 -0.5660
vn -0.3078 0.9016 -0.3039
vn -0.9901 0.0540 0.1294
vn -0.9013 0.0322 0.4320
vn -0.8230 0.3425 0.4531
vn -0.9446 0.3160 0.0882
vn -0.8121 0.4187 -0.4065
vn 0.0229 0.1144 0.9932
vn -0.2621 0.3798 0.8872
vn 0.7448 -0.1710 0.6450
vn 0.7944 0.0990 0.5993
vn 0.6201 0.2372 0.7478
vn 0.4253 0.6061 0.6721
vn 0.6841 0.6302 -0.3671
vn 0.8241 0.4255 -0.3739
vn 0.7305 0.5506 0.4039
vn -0.7451 0.6666 -0.0232
vn -0.6634 0.7167 0.2153
vn -0.3362 0.9272 0.1651
vn -0.0657 0.7966 0.6010
vn 0.3848 0.9053 0.1798
vn -0.4284 0.6141 0.6628
vn -0.2198 0.7348 0.6417
usemtl StoneFloorDetails
s 1
f 3/1/1 4/2/1 1/3/2 2/4/3
f 5/5/4 2/4/3 1/3/2
f 2/6/5 6/7/6 3/8/7
f 6/7/6 2/6/5 7/9/8 8/10/9
f 5/11/10 9/12/11 7/9/8 2/6/5
f 9/12/11 12/13/12 7/9/8
f 11/14/13 8/10/9 7/9/8 12/13/12
f 5/15/14 1/16/15 10/17/16 13/18/17
f 5/11/10 13/19/18 12/13/12 9/12/11
f 4/20/19 14/21/20 10/17/16 1/16/15
f 3/22/21 16/23/22 15/24/23 4/20/19
f 14/21/20 4/20/19 15/24/23 17/25/24
f 6/7/6 18/26/25 16/27/26 3/8/7
f 16/23/22 18/28/27 17/25/24 15/24/23
f 12/29/28 21/30/29 19/31/30 11/14/13
f 10/17/16 21/30/29 12/29/28 13/18/17
f 20/32/31 22/33/32 19/31/30
f 14/21/20 23/34/33 10/17/16
f 20/32/31 19/31/30 21/30/29 24/35/34
f 10/17/16 23/34/33 24/35/34 21/30/29
f 20/32/31 24/35/34 17/25/24 22/33/32
f 14/21/20 17/25/24 24/35/34 23/34/33
f 8/10/9 11/14/13 19/31/30 22/33/32
f 8/10/9 22/33/32 18/26/25 6/7/6
f 18/28/27 22/33/32 17/25/24
