# Blender v2.79 (sub 0) OBJ File: 'StoneFloor_FragmentOne_LOD1.blend'
# www.blender.org
mtllib StoneFloor_FragmentOne_LOD1.mtl
o StoneFloor_FragmentOne_LOD1
v 0.231094 5.911539 4.653817
v -2.097916 3.959421 -5.888219
v -3.433334 5.316381 1.665864
v -5.921997 4.467759 -2.091338
v 4.793488 4.343529 -4.246495
v 6.890015 5.467715 2.128770
v -3.788025 0.038036 0.514857
v -1.851059 2.720466 3.535346
v 2.200333 -0.068576 3.236858
v 5.000259 0.593210 0.118415
v 2.053818 -0.088650 -3.116590
v -4.002808 0.856408 -3.577426
vt 0.842884 0.601179
vt 0.862036 0.605207
vt 0.850790 0.647160
vt 0.833517 0.622293
vt 0.879787 0.615132
vt 0.879787 0.645583
vt 0.365471 0.989543
vt 0.372012 0.974941
vt 0.388593 0.982935
vt 0.379014 0.957507
vt 0.410485 0.958498
vt 0.380253 0.934298
vt 0.358482 0.915356
vt 0.392423 0.907880
vt 0.361064 0.938626
vt 0.333676 0.937674
vt 0.344319 0.953173
vt 0.329518 0.963753
vt 0.355219 0.965933
vt 0.343670 0.989736
vt 0.388370 0.941610
vn -0.0250 0.9832 -0.1810
vn -0.0164 0.9837 -0.1790
vn -0.0141 0.9838 -0.1785
vn -0.0065 0.9842 -0.1767
vn -0.7726 -0.0007 0.6349
vn -0.5088 -0.2223 0.8317
vn -0.0902 -0.0886 0.9920
vn 0.1951 -0.7368 0.6473
vn 0.5145 -0.2731 0.8128
vn 0.6533 -0.7149 -0.2493
vn 0.6515 -0.4231 -0.6298
vn 0.9314 -0.2532 -0.2616
vn 0.2462 -0.8221 -0.5133
vn -0.1880 -0.4116 -0.8918
vn -0.5521 -0.6511 -0.5208
vn -0.8630 -0.2878 -0.4151
vn -0.6096 -0.7301 0.3088
vn -0.8183 -0.0694 0.5705
vn 0.6987 -0.4870 0.5240
usemtl StoneFloorDetails
s 1
f 4/1/1 3/2/2 5/3/3 2/4/1
f 5/3/3 3/2/2 1/5/4 6/6/4
f 3/7/5 8/8/6 1/9/7
f 9/10/8 6/11/9 1/9/7
f 1/9/7 8/8/6 9/10/8
f 10/12/10 5/13/11 6/14/12
f 5/13/11 11/15/13 2/16/14
f 10/12/10 11/15/13 5/13/11
f 12/17/15 2/16/14 11/15/13
f 2/16/14 12/17/15 4/18/16
f 7/19/17 4/18/16 12/17/15
f 8/8/6 7/19/17 9/10/8
f 7/19/17 12/17/15 11/15/13
f 10/12/10 9/10/8 11/15/13
f 7/19/17 11/15/13 9/10/8
f 8/8/6 3/7/5 4/20/18 7/19/17
f 10/21/19 6/11/9 9/10/8
