# Blender v2.79 (sub 0) OBJ File: 'StoneFloor_SlabTwo_LOD1.blend'
# www.blender.org
mtllib StoneFloor_SlabTwo_LOD1.mtl
o StoneFloor_SlabTwo_LOD1
v -47.362457 0.000000 47.208328
v -17.678467 13.659201 47.208328
v -38.190948 13.659201 47.208328
v -44.728851 8.649443 47.208328
v 7.513123 13.659201 47.208328
v 19.908691 13.659201 47.208328
v -9.916382 10.122282 47.208328
v 43.544739 10.045975 47.208328
v 47.362427 0.000000 47.208328
v 47.362427 10.956133 44.546280
v 47.362427 13.659201 35.437180
v 47.362427 13.659201 28.543808
v 47.362427 13.659201 -17.868912
v 47.362427 13.659201 -30.803650
v 47.362427 9.476618 2.463547
v 47.362427 8.400838 -44.459885
v 47.362488 0.000000 -47.208328
v 45.035095 9.926484 -47.208344
v 22.110718 13.659201 -47.208328
v 17.102844 13.659201 -47.208328
v -4.754456 13.659201 -47.208328
v 6.682251 10.086072 -47.208344
v -28.580750 13.659201 -47.208328
v -41.624512 10.617393 -47.208344
v -47.362457 0.000000 -47.208328
v -47.362457 13.659201 -33.580185
v -47.362457 13.659201 -22.215286
v -47.362457 11.325522 -42.985718
v -47.362457 13.659201 12.360245
v -47.362457 13.659201 27.797653
v -47.362457 9.045812 -3.444962
v -47.362457 9.158325 44.602737
v -44.602478 13.659201 40.010269
v -1.071716 13.659201 41.482864
v 42.890503 13.659201 43.371384
v 42.513367 13.659201 -5.610336
v 43.597656 13.659201 -42.643066
v -1.965820 13.659201 -42.686325
v -41.446289 13.659201 -44.734756
v -40.672729 13.659201 -0.678909
vt 0.638744 0.463632
vt 0.605619 0.478726
vt 0.478940 0.420434
vt 0.884241 0.285429
vt 0.884241 0.340629
vt 0.479994 0.352478
vt 0.479994 0.303977
vt 0.883188 0.420434
vt 0.949656 0.250829
vt 0.927046 0.249269
vt 0.924410 0.149260
vt 0.766023 0.479313
vt 0.713098 0.479785
vt 0.866896 0.463306
vt 0.961341 0.131727
vt 0.989144 0.097653
vt 0.968778 0.244532
vt 0.817039 0.488643
vt 0.805309 0.524494
vt 0.747030 0.546935
vt 0.691830 0.546935
vt 0.414106 0.488643
vt 0.605059 0.529085
vt 0.555275 0.615550
vt 0.533903 0.615550
vt 0.426138 0.557258
vt 0.599746 0.600301
vt 0.959566 0.042467
vt 0.936057 0.142644
vt 0.933888 0.045876
vt 0.465127 0.681869
vt 0.424988 0.671910
vt 0.406967 0.623577
vt 0.513627 0.681869
vt 0.805899 0.602569
vt 0.750233 0.615550
vt 0.830386 0.557258
vt 0.949196 0.331614
vt 0.936919 0.388280
vt 0.932584 0.329480
vt 0.930212 0.434337
vt 0.909894 0.507720
vt 0.901712 0.472249
vt 0.809899 0.623577
vt 0.593731 0.662181
vt 0.727062 0.681869
vt 0.661182 0.681869
vt 0.921466 0.714904
vt 0.956635 0.713932
vt 0.936586 0.749878
vt 0.914568 0.729357
vt 0.951878 0.524056
vt 0.987356 0.514927
vt 0.971356 0.583487
vt 0.884241 0.087358
vt 0.479994 0.156423
vt 0.479994 0.090543
vt 0.884241 0.057940
vt 0.885369 0.700891
vt 0.798779 0.662661
vt 0.491772 0.038424
vt 0.677544 0.032140
vt 0.986772 0.277771
vt 0.939581 0.268382
vt 0.898397 0.275536
vt 0.974398 0.043361
vt 0.989185 0.010594
vt 0.954948 0.026426
vt 0.673728 0.391339
vt 0.505242 0.400081
vt 0.648552 0.615550
vt 0.464341 0.546935
vt 0.425467 0.535400
vt 0.493759 0.546935
vt 0.989199 0.295513
vt 0.948616 0.303472
vt 0.898657 0.289029
vt 0.868175 0.391155
vt 0.915001 0.396073
vt 0.519134 0.007706
vt 0.606673 0.007706
vt 0.767079 0.011603
vt 0.865157 0.024080
vt 0.714180 0.013345
vt 0.661828 0.410638
vt 0.560147 0.410638
vt 0.863547 0.233114
vt 0.508543 0.212069
vt 0.974696 0.855984
vt 0.991122 0.871611
vt 0.965646 0.909872
vt 0.930136 0.805753
vt 0.436071 0.599620
vt 0.894269 0.010167
vt 0.981374 0.430223
vt 0.776477 0.410638
vt 0.755105 0.410638
vt 0.975543 0.955831
vt 0.518080 0.478726
vt 0.490179 0.457346
vn 0.0000 0.0000 1.0000
vn 0.0000 1.0000 0.0000
vn 0.3297 0.5617 0.7588
vn 0.2777 0.7993 0.5330
vn 0.1120 0.7329 0.6711
vn 0.7006 0.7116 -0.0521
vn 0.5238 0.8430 0.1221
vn 0.7446 0.6591 -0.1057
vn 1.0000 0.0000 -0.0000
vn 0.0000 0.0000 -1.0000
vn 0.6031 0.6097 -0.5143
vn 0.1282 0.7872 -0.6033
vn 0.5209 0.7396 -0.4263
vn -1.0000 0.0000 0.0000
vn -0.3284 0.6979 -0.6364
vn -0.1467 0.6292 -0.7632
vn -0.3779 0.5159 -0.7687
vn -0.1177 0.9158 0.3839
vn 0.2651 0.5818 0.7689
vn 0.1804 0.6876 0.7034
vn -0.5917 0.5249 0.6118
vn -0.4922 0.7185 0.4914
vn -0.6673 0.6818 0.2997
vn -0.6284 0.5613 0.5385
vn -0.5453 0.8350 -0.0737
vn -0.5740 0.8186 0.0229
vn -0.4793 0.8425 -0.2459
vn -0.6684 0.2035 0.7154
vn 0.5277 0.2005 0.8254
vn 0.4581 0.6356 0.6214
vn 0.4506 0.8558 0.2540
vn 0.4539 0.8728 0.1795
vn 0.7985 0.1872 -0.5722
vn 0.7958 0.4415 -0.4144
vn -0.4134 0.8837 -0.2193
vn -0.5010 0.6794 -0.5361
vn -0.5429 0.2934 -0.7869
vn -0.1906 0.9392 0.2858
vn 0.2933 0.9388 -0.1809
vn 0.2065 0.9203 -0.3323
vn -0.1177 0.6572 -0.7444
vn -0.7531 0.6355 0.1702
vn 0.7489 0.6184 -0.2381
vn -0.6093 0.7700 0.1893
vn -0.1914 0.5583 -0.8073
usemtl StoneFloorDetails
s 1
f 7/1/1 2/2/1 1/3/1
f 13/4/2 14/5/2 26/6/2 27/7/2
f 1/3/1 9/8/1 7/1/1
f 8/9/3 35/10/4 6/11/5
f 6/12/1 5/13/1 9/8/1 8/14/1
f 15/15/6 36/16/7 12/17/8
f 17/18/9 16/19/9 14/20/9 13/21/9
f 9/22/9 17/18/9 15/23/9
f 20/24/10 19/25/10 17/26/10 22/27/10
f 18/28/11 19/29/12 37/30/13
f 26/31/14 28/32/14 25/33/14 27/34/14
f 24/35/10 23/36/10 25/37/10
f 39/38/15 23/39/16 24/40/17
f 22/27/10 17/26/10 25/37/10
f 34/41/18 2/42/19 7/43/20
f 25/33/14 1/44/14 31/45/14
f 31/45/14 1/44/14 30/46/14 29/47/14
f 4/48/21 3/49/22 33/50/23 32/51/24
f 40/52/25 31/53/26 29/54/27
f 12/55/2 29/56/2 30/57/2 11/58/2
f 4/48/21 32/51/24 1/59/28
f 32/60/14 30/46/14 1/44/14
f 11/58/2 30/57/2 33/61/2 34/62/2
f 9/63/29 10/64/30 8/9/3
f 11/65/31 35/10/4 10/64/30
f 10/64/30 35/10/4 8/9/3
f 13/66/32 36/16/7 15/15/6
f 17/67/33 18/28/11 16/68/34
f 26/6/2 38/69/2 39/70/2
f 23/36/10 21/71/10 22/27/10 25/37/10
f 18/28/11 37/30/13 16/68/34
f 11/72/9 10/73/9 9/22/9 12/74/9
f 26/75/35 39/38/15 28/76/36
f 28/76/36 39/38/15 24/40/17
f 24/40/17 25/77/37 28/76/36
f 14/5/2 37/78/2 38/69/2 26/6/2
f 5/79/38 34/41/18 7/43/20
f 34/62/2 33/61/2 3/80/2 2/81/2
f 6/82/2 35/83/2 34/62/2 5/84/2
f 39/70/2 38/69/2 21/85/2 23/86/2
f 36/87/2 40/88/2 29/56/2 12/55/2
f 13/4/2 27/7/2 40/88/2 36/87/2
f 21/89/39 38/90/40 22/91/41
f 30/92/42 32/51/24 33/50/23
f 35/83/2 11/58/2 34/62/2
f 9/22/9 15/23/9 12/74/9
f 13/21/9 15/23/9 17/18/9
f 19/25/10 18/93/10 17/26/10
f 37/30/13 14/94/43 16/68/34
f 40/52/25 27/95/44 31/53/26
f 37/78/2 19/96/2 20/97/2 38/69/2
f 27/34/14 25/33/14 31/45/14
f 20/98/45 22/91/41 38/90/40
f 1/3/1 2/2/1 3/99/1 4/100/1
f 5/13/1 7/1/1 9/8/1
