# Blender v2.79 (sub 0) OBJ File: 'StoneFloor_FragmentThree_LOD2.blend'
# www.blender.org
mtllib StoneFloor_FragmentThree_LOD2.mtl
o StoneFloor_FragmentThree_LOD1
v -3.997192 3.861447 -5.377571
v 4.361496 5.296692 3.520095
v 1.354721 6.210802 -1.936117
v 1.029648 -0.004816 6.792293
v -5.995468 -0.224650 -1.904925
v 1.730896 0.001365 -4.231435
v 4.790344 -0.232358 0.488759
vt 0.879348 0.548022
vt 0.905118 0.540408
vt 0.879285 0.578172
vt 0.931659 0.551960
vt 0.926953 0.575925
vt 0.242957 0.958658
vt 0.230932 0.981548
vt 0.206584 0.961349
vt 0.169126 0.938025
vt 0.181453 0.908579
vt 0.197678 0.937522
vt 0.176898 0.965392
vt 0.220473 0.913411
vt 0.194404 0.990547
vn -0.6082 0.6571 0.4453
vn -0.5919 0.6671 0.4523
vn -0.5945 0.6656 0.4512
vn -0.5855 0.6709 0.4550
vn -0.1162 -0.9029 -0.4138
vn -0.2225 -0.5659 -0.7939
vn 0.4616 -0.5258 -0.7144
vn 0.9985 0.0528 -0.0150
vn 0.8357 -0.2127 0.5063
vn 0.8155 -0.5673 -0.1147
vn 0.6966 0.3106 -0.6467
vn -0.0006 -1.0000 -0.0006
vn 0.3990 0.3391 -0.8520
usemtl StoneFloorDetails
s 1
f 2/1/1 3/2/2 4/3/3
f 3/2/2 1/4/4 5/5/4 4/3/3
f 5/6/5 1/7/6 6/8/7
f 2/9/8 4/10/9 7/11/10
f 3/12/11 2/9/8 7/11/10 6/8/7
f 4/13/12 5/6/5 6/8/7 7/11/10
f 1/14/13 3/12/11 6/8/7
