# Blender v2.79 (sub 0) OBJ File: 'StoneFloor_SlabOne_LOD1.blend'
# www.blender.org
mtllib StoneFloor_SlabOne_LOD1.mtl
o StoneFloor_SlabOne_LOD1
v 47.468094 10.258045 44.437397
v -47.468109 0.000000 47.198315
v -44.578217 9.056684 47.198315
v -37.942871 13.723583 47.198315
v -17.400452 13.723583 47.198315
v -26.677795 10.228342 47.198315
v 7.859406 13.723583 47.198315
v 1.846252 9.907307 47.198315
v 20.042847 13.723583 47.198315
v 43.516052 9.845208 47.198315
v 47.468094 0.000000 47.198315
v 47.468094 13.723583 35.204533
v 47.468094 13.723583 27.908667
v 47.468094 13.723583 -18.175459
v 47.468094 13.723583 -30.755144
v 47.468094 9.361645 1.718454
v 47.468094 9.349781 -43.453144
v 47.468094 0.000000 -47.198315
v 44.248596 9.529719 -47.198315
v 21.519897 13.723583 -47.198315
v -28.060974 13.723583 -47.198315
v -41.395355 10.383347 -47.198315
v -47.468109 0.000000 -47.198315
v -47.468109 11.116703 -42.559212
v -47.468109 13.723583 -32.268505
v -47.468109 13.723583 -21.121134
v -47.468109 13.723583 12.572353
v -47.468109 13.723583 27.906061
v -47.468109 8.926838 -2.679537
v -47.468109 10.952387 42.459026
v -25.319031 13.723583 43.534073
v -2.097290 13.723583 42.013779
v 42.493301 13.723583 43.811409
v 42.300842 13.723583 3.257034
v 43.480423 13.723583 -41.289852
v -41.132263 13.723583 -44.271599
v -42.559540 13.723583 1.994348
vt 0.808499 0.690534
vt 0.791633 0.732549
vt 0.691459 0.749101
vt 0.639464 0.749101
vt 0.836846 0.980295
vt 0.832243 0.958399
vt 0.888102 0.974750
vt 0.613803 0.732815
vt 0.492075 0.734185
vt 0.403350 0.690534
vt 0.703186 0.815640
vt 0.618287 0.797025
vt 0.811061 0.796974
vt 0.756871 0.815640
vt 0.435980 0.800851
vt 0.424198 0.757073
vt 0.506518 0.815640
vt 0.475382 0.815640
vt 0.532154 0.882180
vt 0.435157 0.864282
vt 0.800651 0.867925
vt 0.743745 0.882180
vt 0.827043 0.757073
vt 0.661227 0.952353
vt 0.596138 0.931882
vt 0.808996 0.893786
vt 0.443999 0.749101
vt 0.415682 0.729184
vt 0.425947 0.941228
vt 0.406149 0.893786
vt 0.517437 0.952353
vt 0.469864 0.952353
vt 0.726664 0.952353
vt 0.788771 0.940527
vt 0.050352 0.484169
vt 0.104226 0.499806
vt 0.009702 0.631938
vt 0.009702 0.566500
vt 0.857703 0.909063
vt 0.890943 0.949304
vt 0.853360 0.933753
vt 0.981139 0.731579
vt 0.989864 0.815920
vt 0.962665 0.798650
vt 0.796313 0.968170
vt 0.138019 0.484169
vt 0.203326 0.506294
vt 0.978175 0.843976
vt 0.905158 0.809724
vt 0.861032 0.799323
vt 0.870278 0.780859
vt 0.848273 0.776656
vt 0.819891 0.808188
vt 0.910037 0.833977
vt 0.890949 0.852586
vt 0.854958 0.820048
vt 0.949421 0.819413
vt 0.921752 0.850926
vt 0.414851 0.763157
vt 0.009702 0.775728
vt 0.030650 0.677081
vt 0.392800 0.671692
vt 0.894834 0.988507
vt 0.935773 0.947531
vt 0.938784 0.977517
vt 0.954711 0.948873
vt 0.700425 0.990357
vt 0.633688 0.976152
vt 0.681001 0.960719
vt 0.414851 0.566489
vt 0.245818 0.484169
vt 0.297812 0.484169
vt 0.393621 0.498623
vt 0.414851 0.535353
vt 0.397834 0.861800
vt 0.036741 0.874525
vt 0.009702 0.823301
vt 0.414851 0.816842
vt 0.505219 0.989849
vt 0.512902 0.961268
vt 0.618447 0.983135
vt 0.818751 0.934996
vt 0.848803 0.677695
vt 0.418790 0.974365
vt 0.304115 0.887015
vt 0.092524 0.887015
vt 0.531666 0.749101
vt 0.908858 0.952764
vt 0.945774 0.888683
vt 0.989057 0.988255
vt 0.782283 0.976630
vt 0.846712 0.844455
vt 0.421417 0.823613
vt 0.826567 0.823613
vn -0.0000 0.0000 1.0000
vn 0.0135 0.7210 0.6928
vn -0.0763 0.7355 0.6733
vn 0.2074 0.6683 0.7144
vn 1.0000 -0.0000 0.0000
vn -0.0000 0.0000 -1.0000
vn -1.0000 0.0000 0.0000
vn 0.0000 1.0000 0.0000
vn -0.5256 0.7573 0.3876
vn -0.7795 0.2487 0.5748
vn -0.6480 0.4835 0.5885
vn 0.1687 0.8507 0.4979
vn -0.1962 0.7125 0.6737
vn 0.0246 0.8140 0.5804
vn -0.2804 0.7444 0.6060
vn -0.3734 0.5884 0.7172
vn 0.5435 0.2182 0.8106
vn 0.5231 0.5816 0.6230
vn 0.3653 0.5341 0.7624
vn 0.3195 0.7392 0.5929
vn 0.5195 0.8000 0.3003
vn 0.6709 0.5723 -0.4716
vn 0.4601 0.7839 -0.4170
vn 0.6522 0.7167 -0.2469
vn 0.7401 0.2500 -0.6242
vn 0.5058 0.6294 -0.5899
vn -0.4218 0.8789 -0.2227
vn -0.3359 0.7185 -0.6091
vn -0.5028 0.6868 -0.5248
vn -0.3858 0.5453 -0.7442
vn -0.7204 0.6920 0.0464
vn -0.5429 0.8011 -0.2519
vn -0.6292 0.7669 -0.1262
vn 0.6509 0.7583 0.0363
vn 0.6435 0.7654 -0.0087
vn 0.6169 0.7764 -0.1293
vn -0.4198 0.8351 0.3555
vn 0.1107 0.6701 0.7339
vn 0.6641 0.7303 0.1601
vn 0.1504 0.8153 -0.5591
vn -0.1647 0.6573 -0.7354
vn -0.5500 0.3216 -0.7708
vn -0.7644 0.6240 0.1623
vn -0.3543 0.9186 0.1749
usemtl StoneFloorDetails
s 1
f 11/1/1 10/2/1 9/3/1 7/4/1
f 6/5/2 31/6/3 4/7/4
f 8/8/1 6/9/1 2/10/1 11/1/1
f 8/8/1 11/1/1 7/4/1
f 14/11/5 16/12/5 17/13/5 15/14/5
f 1/15/5 11/16/5 13/17/5 12/18/5
f 20/19/6 19/20/6 22/21/6 21/22/6
f 13/17/5 11/16/5 16/12/5
f 18/23/5 17/13/5 16/12/5 11/16/5
f 27/24/7 29/25/7 2/26/7
f 6/9/1 4/27/1 3/28/1 2/10/1
f 24/29/7 23/30/7 26/31/7 25/32/7
f 29/25/7 23/30/7 2/26/7
f 28/33/7 27/24/7 2/26/7 30/34/7
f 4/35/8 31/36/8 27/37/8 28/38/8
f 30/39/9 2/40/10 3/41/11
f 5/42/12 8/43/13 32/44/14
f 5/45/15 31/6/3 6/5/2
f 31/36/8 5/46/8 32/47/8 27/37/8
f 7/48/16 32/44/14 8/43/13
f 11/49/17 1/50/18 10/51/19
f 33/52/20 10/51/19 1/50/18
f 1/50/18 12/53/21 33/52/20
f 17/54/22 35/55/23 15/56/24
f 17/54/22 18/57/25 19/58/26
f 14/59/8 26/60/8 37/61/8 34/62/8
f 25/63/27 36/64/28 24/65/29
f 36/64/28 22/66/30 24/65/29
f 29/67/31 27/68/32 37/69/33
f 27/37/8 32/47/8 13/70/8
f 13/70/8 32/47/8 7/71/8 9/72/8
f 27/37/8 13/70/8 34/62/8 37/61/8
f 13/70/8 9/72/8 33/73/8 12/74/8
f 35/75/8 36/76/8 25/77/8 15/78/8
f 16/79/34 34/80/35 13/81/36
f 30/39/9 3/41/11 4/82/37
f 33/52/20 9/83/38 10/51/19
f 14/84/39 34/80/35 16/79/34
f 20/85/8 21/86/8 36/76/8 35/75/8
f 35/55/23 17/54/22 19/58/26
f 8/8/1 5/87/1 6/9/1
f 35/55/23 19/58/26 20/88/40
f 21/89/41 22/66/30 36/64/28
f 22/66/30 23/90/42 24/65/29
f 15/78/8 25/77/8 26/60/8 14/59/8
f 23/30/7 29/25/7 26/31/7
f 26/91/43 29/67/31 37/69/33
f 30/39/9 4/82/37 28/92/44
f 22/21/6 19/20/6 18/93/6 23/94/6
