# Blender v2.79 (sub 0) OBJ File: 'StoneFloor_GrassTwo_LOD2.blend'
# www.blender.org
mtllib StoneFloor_GrassTwo_LOD2.mtl
o StoneFloor_GrassTwo_LOD2
v -7.774567 -0.234126 7.454614
v -7.774567 15.501817 7.454614
v 9.202789 -0.234126 -8.824080
v 9.202789 15.501817 -8.824080
v -7.993805 -0.234126 -8.336897
v 6.707642 -0.234126 6.995515
v 6.707642 15.501817 6.995515
v -7.993805 15.501817 -8.336897
vt 0.590126 0.607474
vt 0.590126 0.992084
vt 0.007886 0.992084
vt 0.007886 0.607474
vt 0.965125 0.546111
vt 0.579285 0.546111
vt 0.579284 0.020286
vt 0.965125 0.020286
vn 0.6921 0.0000 0.7218
vn -0.7218 0.0000 0.6921
usemtl StoneFloorGrass
s 1
f 3/1/1 4/2/1 2/3/1 1/4/1
f 6/5/2 7/6/2 8/7/2 5/8/2
