# Blender v2.79 (sub 0) OBJ File: 'StoneFloor_FragmentFour_LOD1.blend'
# www.blender.org
mtllib StoneFloor_FragmentFour_LOD1.mtl
o StoneFloor_FragmentFour_LOD1
v -6.128860 2.464818 1.694265
v 3.954834 7.073047 -0.073169
v 2.591873 3.472363 -5.468049
v -3.016190 1.403072 -3.495761
v -0.369919 7.680664 5.090825
v -1.038559 4.336629 5.360031
v -4.764557 1.724056 3.058251
v -0.535706 -0.016289 3.231352
v 0.524216 2.059388 4.331477
v -3.023895 -0.223149 0.026359
v -0.714508 -0.067733 -1.965640
v 2.593140 3.480005 3.848310
v 3.737976 2.621546 1.859123
v 4.176422 2.173589 -2.691027
vt 0.919804 0.633944
vt 0.902845 0.611308
vt 0.922500 0.592998
vt 0.948589 0.631823
vt 0.948589 0.595635
vt 0.102729 0.956064
vt 0.109568 0.976030
vt 0.100826 0.988533
vt 0.093991 0.951339
vt 0.111385 0.943894
vt 0.119140 0.955968
vt 0.135122 0.966195
vt 0.144400 0.989835
vt 0.125480 0.984265
vt 0.122294 0.967677
vt 0.121026 0.937381
vt 0.138369 0.956910
vt 0.159529 0.960805
vt 0.144699 0.937384
vt 0.111249 0.927395
vt 0.159529 0.926917
vt 0.139892 0.918634
vn -0.4374 0.7882 -0.4328
vn -0.4403 0.7942 -0.4188
vn -0.4374 0.7882 -0.4329
vn -0.4359 0.7852 -0.4397
vn -0.6662 -0.4380 0.6036
vn -0.4879 -0.0566 0.8711
vn -0.6197 0.1981 0.7594
vn -0.8497 -0.4650 0.2485
vn -0.3807 -0.9235 -0.0472
vn 0.1133 -0.8482 0.5175
vn 0.6725 -0.1042 0.7327
vn 0.6208 0.1259 0.7738
vn 0.3701 -0.0663 0.9266
vn 0.2702 -0.4438 0.8544
vn 0.1248 -0.9362 -0.3285
vn 0.8447 -0.3886 0.3680
vn 0.9516 0.2028 0.2311
vn 0.8334 -0.4704 -0.2903
vn -0.2946 -0.8172 -0.4954
vn 0.8868 0.2484 -0.3898
vn 0.2022 -0.7777 -0.5952
usemtl StoneFloorDetails
s 1
f 2/1/1 3/2/2 4/3/3
f 5/4/4 2/1/1 4/3/3 1/5/4
f 7/6/5 6/7/6 5/8/7 1/9/8
f 7/6/5 10/10/9 8/11/10
f 12/12/11 5/13/12 6/14/13 9/15/14
f 8/11/10 10/10/9 11/16/15
f 12/12/11 13/17/16 2/18/17 5/13/12
f 14/19/18 13/17/16 8/11/10 11/16/15
f 10/10/9 4/20/19 11/16/15
f 14/19/18 3/21/20 2/18/17
f 13/17/16 12/12/11 9/15/14 8/11/10
f 3/22/21 14/19/18 11/16/15
f 13/17/16 14/19/18 2/18/17
f 1/9/8 4/20/19 10/10/9 7/6/5
f 7/6/5 8/11/10 9/15/14 6/7/6
f 4/20/19 3/22/21 11/16/15
