# Blender v2.79 (sub 0) OBJ File: 'StoneFloor_FragmentOne.blend'
# www.blender.org
mtllib StoneFloor_FragmentOne.mtl
o StoneFloor_FragmentOne
v 0.077988 5.187068 5.402659
v -2.145950 5.870401 -5.319129
v -3.550781 5.195071 2.313642
v -5.992249 5.210759 -1.568255
v 4.716888 6.156977 -3.543267
v 6.751831 5.722566 2.935431
v -2.384827 0.170524 1.657825
v -3.640137 0.372339 -0.144980
v -1.841217 2.288646 3.483012
v 2.111633 2.884102 4.672861
v 4.993271 3.552672 3.599281
v 2.789337 0.672474 3.364841
v 2.344925 -0.133510 2.539107
v 5.109467 1.434278 -0.271865
v 5.246613 3.996364 -1.832477
v 5.833191 3.443252 1.166355
v 3.491119 -0.165496 -0.068296
v 2.937759 3.791106 -4.240727
v 2.202225 1.456086 -3.612396
v -3.893951 2.193337 -3.897604
v -2.768188 -0.188862 -1.790606
v 0.652939 0.046219 -2.667750
vt 0.842884 0.601179
vt 0.862036 0.605207
vt 0.850790 0.647160
vt 0.833517 0.622293
vt 0.879787 0.615132
vt 0.879787 0.645583
vt 0.365471 0.989543
vt 0.372012 0.974941
vt 0.388593 0.982935
vt 0.355219 0.965933
vt 0.343670 0.989736
vt 0.364853 0.966339
vt 0.410485 0.958498
vt 0.387474 0.968535
vt 0.397444 0.960240
vt 0.383237 0.959529
vt 0.379014 0.957507
vt 0.399048 0.948579
vt 0.392423 0.907880
vt 0.385903 0.922066
vt 0.370479 0.922924
vt 0.358482 0.915356
vt 0.380253 0.934298
vt 0.377772 0.945755
vt 0.388370 0.941610
vt 0.357135 0.929526
vt 0.333676 0.937674
vt 0.361064 0.938626
vt 0.344319 0.953173
vt 0.329518 0.963753
vt 0.354801 0.957597
vt 0.361492 0.947183
vn -0.0742 0.9945 0.0743
vn -0.0656 0.9949 0.0765
vn -0.0633 0.9950 0.0771
vn -0.0557 0.9953 0.0790
vn -0.7715 -0.1995 0.6041
vn -0.5167 -0.3843 0.7651
vn -0.1747 -0.2293 0.9575
vn -0.6773 -0.7060 0.2066
vn -0.8206 -0.2474 0.5151
vn -0.4306 -0.7714 0.4686
vn 0.6608 -0.3283 0.6750
vn 0.1383 -0.3190 0.9376
vn 0.6136 -0.3398 0.7127
vn 0.3317 -0.6468 0.6867
vn 0.1837 -0.8859 0.4259
vn 0.7651 -0.5589 0.3197
vn 0.9585 -0.0804 -0.2735
vn 0.9596 -0.1172 -0.2559
vn 0.8635 -0.2405 -0.4434
vn 0.7015 -0.1476 -0.6972
vn 0.7545 -0.4552 -0.4728
vn 0.4287 -0.8991 -0.0886
vn 0.7271 -0.6072 0.3204
vn 0.4031 -0.2372 -0.8839
vn -0.1853 -0.1635 -0.9690
vn 0.3440 -0.5459 -0.7640
vn -0.5532 -0.4207 -0.7190
vn -0.8387 -0.2288 -0.4942
vn -0.3520 -0.8864 -0.3006
vn 0.0711 -0.8727 -0.4831
usemtl StoneFloorDetails
s 1
f 4/1/1 3/2/2 5/3/3 2/4/1
f 5/3/3 3/2/2 1/5/4 6/6/4
f 3/7/5 9/8/6 1/9/7
f 8/10/8 3/7/5 4/11/9
f 7/12/10 9/8/6 3/7/5 8/10/8
f 6/13/11 1/9/7 10/14/12 11/15/13
f 11/15/13 10/14/12 12/16/14
f 9/8/6 10/14/12 1/9/7
f 7/12/10 13/17/15 12/16/14 9/8/6
f 10/14/12 9/8/6 12/16/14
f 6/13/11 11/15/13 16/18/16
f 6/19/17 16/20/18 15/21/19 5/22/20
f 14/23/21 15/21/19 16/20/18
f 13/17/15 17/24/22 14/25/23 12/16/14
f 11/15/13 12/16/14 14/25/23 16/18/16
f 5/22/20 18/26/24 2/27/25
f 15/21/19 18/26/24 5/22/20
f 14/23/21 19/28/26 18/26/24 15/21/19
f 2/27/25 18/26/24 19/28/26 20/29/27
f 2/27/25 20/29/27 4/30/28
f 8/10/8 4/30/28 20/29/27 21/31/29
f 19/28/26 22/32/30 21/31/29 20/29/27
f 17/24/22 22/32/30 19/28/26 14/23/21
f 13/17/15 7/12/10 22/32/30 17/24/22
f 7/12/10 8/10/8 21/31/29 22/32/30
