# Blender v2.82 (sub 7) OBJ File: 'StoneFloor_Sample.blend'
# www.blender.org
mtllib StoneFloor_Sample.mtl
o StoneFloor_Plane.008
v -195.726837 -11.191551 185.794205
v 186.361481 -11.191551 185.794205
v -195.726837 -11.191551 -196.294113
v 186.361481 -11.191551 -196.294113
v 92.419556 -34.418175 91.404617
v 92.419556 -11.191551 91.404617
v 92.419540 -11.191552 -6.455652
v 92.419540 -34.418159 -6.455653
v -5.593176 -34.418163 91.404617
v -5.593176 -34.418163 -6.455647
v -5.593178 -11.191552 91.404617
v -5.593178 -11.191554 -6.455647
vt 0.754135 0.247036
vt 1.000000 0.000000
vt 1.000000 0.999999
vt 0.754136 0.503155
vt 0.000000 0.000000
vt 0.497617 0.247036
vt 0.497617 0.503155
vt 0.000001 1.000000
vt 0.497617 0.186247
vt 0.754136 0.186247
vt 0.814924 0.503155
vt 0.814924 0.247036
vt 0.497617 0.563944
vt 0.754136 0.563944
vt 0.436829 0.247036
vt 0.436829 0.503155
vn -0.0000 1.0000 -0.0000
vn 0.0000 0.0000 -1.0000
vn -1.0000 0.0000 0.0000
vn 0.0000 -0.0000 1.0000
vn 1.0000 0.0000 -0.0000
usemtl StoneFloor
s off
f 6/1/1 2/2/1 4/3/1 7/4/1
f 1/5/1 2/2/1 6/1/1 11/6/1
f 12/7/1 7/4/1 4/3/1 3/8/1
f 1/5/1 11/6/1 12/7/1 3/8/1
f 9/9/2 11/6/2 6/1/2 5/10/2
f 6/1/3 7/4/3 8/11/3 5/12/3
f 12/7/4 10/13/4 8/14/4 7/4/4
f 9/15/5 10/16/5 12/7/5 11/6/5
